<svg xmlns="http://www.w3.org/2000/svg" viewBox="0 0 64 64">
  <defs>
    <radialGradient id="bg" cx="42%" cy="30%" r="68%">
      <stop offset="0%" stop-color="#1a8fd4"/>
      <stop offset="50%" stop-color="#0b5da8"/>
      <stop offset="100%" stop-color="#032660"/>
    </radialGradient>
    <clipPath id="cc"><circle cx="32" cy="32" r="30"/></clipPath>
  </defs>
  <circle cx="32" cy="33" r="31.5" fill="#021840" opacity="0.4"/>
  <circle cx="32" cy="32" r="30.5" fill="#032660"/>
  <circle cx="32" cy="32" r="30" fill="url(#bg)"/>
  <g clip-path="url(#cc)">
    <path d="M -1 52 C 8 38 20 25 38 18 C 48 15 56 17 62 25"
          fill="none" stroke="#3bbcec" stroke-width="7" stroke-opacity="0.35" stroke-linecap="round"/>
    <path d="M -1 52 C 8 38 20 25 38 18 C 48 15 56 17 62 25"
          fill="none" stroke="#7de4ff" stroke-width="2.5" stroke-opacity="0.45" stroke-linecap="round"/>
    <path d="M 2 58 C 11 62 22 64 28 58 C 35 51 30 44 20 48 C 12 51 10 59 15 63"
          fill="none" stroke="#28a8d8" stroke-width="5" stroke-opacity="0.3" stroke-linecap="round"/>
  </g>
  <!-- Doc traseiro -->
  <g transform="rotate(-9 20 31)">
    <rect x="10" y="15" width="19" height="24" rx="2" fill="#b8d8f2" opacity="0.8"/>
    <rect x="13" y="20" width="11" height="1.5" rx="0.75" fill="#4a88c0" opacity="0.45"/>
    <rect x="13" y="23" width="13" height="1.5" rx="0.75" fill="#4a88c0" opacity="0.4"/>
    <rect x="13" y="26" width="10" height="1.5" rx="0.75" fill="#4a88c0" opacity="0.35"/>
  </g>
  <!-- Doc frontal -->
  <g transform="rotate(7 34 32)">
    <rect x="24" y="14" width="19" height="25" rx="2" fill="#ffffff" opacity="0.97"/>
    <rect x="27" y="20" width="11" height="2" rx="1" fill="#1260a8" opacity="0.62"/>
    <rect x="27" y="24" width="13" height="2" rx="1" fill="#1260a8" opacity="0.50"/>
    <rect x="27" y="28" width="12" height="2" rx="1" fill="#1260a8" opacity="0.45"/>
    <rect x="27" y="32" width="10" height="2" rx="1" fill="#1260a8" opacity="0.35"/>
  </g>
  <circle cx="32" cy="32" r="30.5" fill="none" stroke="#042d72" stroke-width="1.5"/>
</svg>