<svg xmlns="http://www.w3.org/2000/svg" viewBox="0 0 512 512" role="img" aria-label="Logo Sistema Controle TED">
  <defs>
    <linearGradient id="bg" x1="0" y1="0" x2="1" y2="1">
      <stop offset="0%" stop-color="#1d4ed8"/>
      <stop offset="100%" stop-color="#0b2f7a"/>
    </linearGradient>
    <linearGradient id="accent" x1="0" y1="0" x2="1" y2="1">
      <stop offset="0%" stop-color="#38bdf8"/>
      <stop offset="100%" stop-color="#1d4ed8"/>
    </linearGradient>
  </defs>

  <circle cx="256" cy="256" r="228" fill="url(#bg)"/>

  <path d="M318 90 L402 174 L402 286 C402 340 358 384 304 384 H182 C128 384 84 340 84 286 V152 C84 98 128 54 182 54 H280 C294 54 307 58 318 67 Z" fill="#ffffff" opacity="0.94"/>
  <path d="M318 90 V146 C318 162 330 174 346 174 H402" fill="none" stroke="#dbeafe" stroke-width="18" stroke-linejoin="round"/>

  <rect x="132" y="198" width="120" height="12" rx="6" fill="#1e3a8a" opacity="0.95"/>
  <rect x="132" y="232" width="112" height="12" rx="6" fill="#1e3a8a" opacity="0.95"/>
  <rect x="132" y="266" width="100" height="12" rx="6" fill="#1e3a8a" opacity="0.95"/>

  <rect x="270" y="198" width="96" height="12" rx="6" fill="#1e3a8a" opacity="0.95"/>
  <rect x="270" y="232" width="86" height="12" rx="6" fill="#1e3a8a" opacity="0.95"/>
  <rect x="270" y="266" width="110" height="12" rx="6" fill="#1e3a8a" opacity="0.95"/>

  <path d="M54 338 C136 392, 252 410, 458 336" fill="none" stroke="#ffffff" stroke-width="32" stroke-linecap="round"/>
  <path d="M70 318 C164 374, 280 384, 472 316" fill="none" stroke="url(#accent)" stroke-width="24" stroke-linecap="round"/>
  <path d="M84 294 C186 346, 300 346, 454 286" fill="none" stroke="#1e3a8a" stroke-width="18" stroke-linecap="round"/>
</svg>
